<svg width="10" height="12" viewBox="0 0 10 12" fill="none" xmlns="http://www.w3.org/2000/svg">
<path d="M0 7.05179C0 7.93626 0.227092 8.76096 0.669323 9.5259C1.11155 10.2908 1.72112 10.8884 2.4741 11.3307C3.22709 11.7849 4.05179 12 4.93625 12C6.31076 12 7.48207 11.51 8.46215 10.5418C9.44223 9.56175 9.93227 8.40239 9.93227 7.05179C9.93227 6.77689 9.83665 6.53785 9.63346 6.33466C9.43028 6.13147 9.19123 6.03586 8.90438 6.03586C8.61753 6.03586 8.37849 6.13147 8.1753 6.33466C7.97211 6.53785 7.86454 6.77689 7.86454 7.05179C7.86454 7.85259 7.57769 8.53386 7.00398 9.11952C6.43028 9.69323 5.749 9.98008 4.93625 9.98008C4.14741 9.98008 3.46614 9.69323 2.89243 9.11952C2.31872 8.54582 2.03187 7.85259 2.03187 7.05179C2.03187 6.33466 2.24701 5.7012 2.66534 5.13944C3.09562 4.57769 3.60956 4.26693 4.23107 4.21912L3.74104 4.68526C3.56175 4.86454 3.46614 5.09163 3.46614 5.36653C3.46614 5.66534 3.5498 5.92829 3.74104 6.15538C3.90837 6.33466 4.11155 6.43028 4.3745 6.43028C4.63745 6.44223 4.91235 6.34661 5.21116 6.15538L7.38645 3.92032C7.58964 3.71713 7.68526 3.49004 7.68526 3.22709C7.68526 2.92829 7.58964 2.68924 7.38645 2.49801L5.21116 0.310757C4.98406 0.0956178 4.74502 0 4.47012 0C4.19522 0 3.95618 0.0956175 3.76494 0.298805C3.57371 0.501992 3.47809 0.741037 3.47809 1.02789C3.47809 1.31474 3.56175 1.54183 3.75299 1.72112L4.17131 2.15139C2.9761 2.35458 1.98406 2.90438 1.19522 3.8247C0.394422 4.73307 0 5.80877 0 7.05179Z" fill="#005883"/>
</svg>
