<svg width="50" height="50" viewBox="0 0 50 50" fill="none" xmlns="http://www.w3.org/2000/svg">
<path d="M24.9929 2.46041e-05C30.7771 -0.00162878 36.3829 2.00248 40.855 5.67084C45.3272 9.3392 48.389 14.4448 49.5186 20.1177C50.6482 25.7905 49.7758 31.6795 47.05 36.7812C44.3242 41.8829 39.9137 45.8815 34.57 48.0957C29.2264 50.3099 23.2803 50.6027 17.745 48.9241C12.2097 47.2455 7.42777 43.6995 4.21399 38.8903C1.00022 34.081 -0.446494 28.3062 0.120393 22.5498C0.68728 16.7935 3.23268 11.4118 7.32285 7.32185C9.6401 4.99688 12.3942 3.15306 15.4267 1.8965C18.4592 0.639929 21.7103 -0.0045899 24.9929 2.46041e-05ZM24.8342 30.1741L21.1936 40.2335C21.1041 40.4855 20.9652 40.7172 20.785 40.9149C20.6048 41.1125 20.3869 41.2722 20.1442 41.3846C19.7795 41.5556 19.3724 41.6144 18.9743 41.5537C18.5761 41.493 18.205 41.3155 17.9079 41.0436C17.6108 40.7718 17.401 40.4179 17.3053 40.0267C17.2095 39.6355 17.2321 39.2247 17.37 38.8464L19.9083 31.8174C20.1097 31.2885 20.2688 30.7444 20.3842 30.1903C20.4868 29.6278 20.5601 29.0602 20.6038 28.4901C20.7015 27.4609 20.7706 26.3464 20.8235 25.2766C20.8764 24.2068 20.913 23.1695 20.9414 22.3113C20.9781 21.2415 20.6892 21.1723 19.831 20.9689L19.652 20.9282L12.3302 19.5493C12.0668 19.5029 11.8152 19.4049 11.5898 19.2612C11.3644 19.1174 11.1695 18.9305 11.0163 18.7114C10.7888 18.3793 10.6649 17.9872 10.6603 17.5847C10.6557 17.1822 10.7707 16.7874 10.9907 16.4503C11.2106 16.1132 11.5257 15.8489 11.8959 15.691C12.2661 15.533 12.6749 15.4885 13.0705 15.563L20.9374 17.0395C21.2506 17.068 21.5557 17.1046 21.877 17.1412C22.8451 17.2739 23.8205 17.3459 24.7976 17.3568C26.0139 17.3331 27.2279 17.2421 28.4341 17.0843C28.8002 17.0436 29.146 16.9989 29.4917 16.9663L36.9152 15.5752C37.4419 15.466 37.9903 15.5698 38.4406 15.864C38.6638 16.015 38.8547 16.2088 39.0023 16.4342C39.1499 16.6597 39.2513 16.9122 39.3005 17.1771C39.3497 17.442 39.3457 17.7141 39.2889 17.9774C39.2321 18.2408 39.1235 18.4903 38.9694 18.7114C38.8183 18.9319 38.6252 19.1205 38.4012 19.2664C38.1771 19.4123 37.9265 19.5126 37.6637 19.5615L30.5696 20.8957C30.3337 20.9486 30.1222 20.9852 29.9351 21.0137C29.1948 21.1398 28.8287 21.2048 28.8734 22.2584C28.906 23.0272 28.9995 23.9465 29.1215 24.9064C29.2639 26.0332 29.451 27.2291 29.6463 28.3233C29.7724 29.0433 29.8903 29.6209 30.053 30.1741C30.2158 30.7273 30.3744 31.2927 30.6185 31.972L33.1038 38.8464C33.2418 39.2247 33.2643 39.6355 33.1686 40.0267C33.0728 40.4179 32.8631 40.7718 32.566 41.0436C32.2688 41.3155 31.8977 41.493 31.4996 41.5537C31.1015 41.6144 30.6943 41.5556 30.3296 41.3846C30.0869 41.2722 29.869 41.1125 29.6888 40.9149C29.5086 40.7172 29.3697 40.4855 29.2802 40.2335L25.6274 30.1944L25.2206 29.45L24.8139 30.1741H24.8342ZM24.9929 8.40385C25.8239 8.40315 26.6294 8.69062 27.2722 9.21728C27.915 9.74394 28.3553 10.4772 28.5181 11.2921C28.6809 12.107 28.556 12.9532 28.1648 13.6864C27.7737 14.4195 27.1403 14.9944 26.3728 15.313C25.6053 15.6315 24.7511 15.6741 23.9557 15.4334C23.1603 15.1928 22.4729 14.6837 22.0108 13.9931C21.5486 13.3024 21.3403 12.4729 21.4212 11.6458C21.5022 10.8188 21.8674 10.0453 22.4546 9.45738C22.7873 9.12304 23.1829 8.85782 23.6185 8.67701C24.0541 8.4962 24.5212 8.40336 24.9929 8.40385ZM39.7789 10.2058C36.3624 6.778 31.863 4.64098 27.0475 4.15899C22.2319 3.67701 17.3982 4.87987 13.3702 7.56259C9.34213 10.2453 6.36905 14.2419 4.95763 18.8711C3.54621 23.5003 3.78379 28.4758 5.62988 32.9495C7.47597 37.4232 10.8163 41.1183 15.0816 43.405C19.347 45.6917 24.2733 46.4285 29.021 45.4899C33.7688 44.5512 38.0441 41.9952 41.1183 38.2575C44.1926 34.5197 45.8756 29.8315 45.8804 24.9919C45.8864 22.247 45.3506 19.5279 44.3036 16.9906C43.2565 14.4533 41.7189 12.1476 39.7789 10.2058Z" fill="white"/>
</svg>
