<svg width="54" height="54" viewBox="0 0 54 54" fill="none" xmlns="http://www.w3.org/2000/svg">
<rect width="54" height="54" rx="14" fill="white"/>
<path d="M32 8.25C32 7.91848 31.8683 7.60054 31.6339 7.36612C31.3995 7.1317 31.0815 7 30.75 7H23.25C22.9185 7 22.6005 7.1317 22.3661 7.36612C22.1317 7.60054 22 7.91848 22 8.25C22 8.58152 21.8683 8.89946 21.6339 9.13388C21.3995 9.3683 21.0815 9.5 20.75 9.5C20.4185 9.5 20.1005 9.6317 19.8661 9.86612C19.6317 10.1005 19.5 10.4185 19.5 10.75V12C19.5 12.3315 19.6317 12.6495 19.8661 12.8839C20.1005 13.1183 20.4185 13.25 20.75 13.25H33.25C33.5815 13.25 33.8995 13.1183 34.1339 12.8839C34.3683 12.6495 34.5 12.3315 34.5 12V10.75C34.5 10.4185 34.3683 10.1005 34.1339 9.86612C33.8995 9.6317 33.5815 9.5 33.25 9.5C32.9185 9.5 32.6005 9.3683 32.3661 9.13388C32.1317 8.89946 32 8.58152 32 8.25Z" fill="#005883"/>
<path d="M17.2125 9.5H15.75C14.7554 9.5 13.8016 9.89509 13.0983 10.5983C12.3951 11.3016 12 12.2554 12 13.25V43.25C12 44.2446 12.3951 45.1984 13.0983 45.9016C13.8016 46.6049 14.7554 47 15.75 47H38.25C39.2446 47 40.1984 46.6049 40.9017 45.9016C41.6049 45.1984 42 44.2446 42 43.25V13.25C42 12.2554 41.6049 11.3016 40.9017 10.5983C40.1984 9.89509 39.2446 9.5 38.25 9.5H36.7875C36.925 9.89 37 10.3125 37 10.75V12C37 12.9946 36.6049 13.9484 35.9017 14.6517C35.1984 15.3549 34.2446 15.75 33.25 15.75H20.75C19.7554 15.75 18.8016 15.3549 18.0983 14.6517C17.3951 13.9484 17 12.9946 17 12V10.75C17 10.3125 17.075 9.89 17.2125 9.5ZM32 24.5C32 23.837 32.2634 23.2011 32.7322 22.7322C33.2011 22.2634 33.837 22 34.5 22C35.163 22 35.7989 22.2634 36.2678 22.7322C36.7366 23.2011 37 23.837 37 24.5V37C37 37.663 36.7366 38.2989 36.2678 38.7678C35.7989 39.2366 35.163 39.5 34.5 39.5C33.837 39.5 33.2011 39.2366 32.7322 38.7678C32.2634 38.2989 32 37.663 32 37V24.5ZM17 34.5C17 33.837 17.2634 33.2011 17.7322 32.7322C18.2011 32.2634 18.837 32 19.5 32C20.163 32 20.7989 32.2634 21.2678 32.7322C21.7366 33.2011 22 33.837 22 34.5V37C22 37.663 21.7366 38.2989 21.2678 38.7678C20.7989 39.2366 20.163 39.5 19.5 39.5C18.837 39.5 18.2011 39.2366 17.7322 38.7678C17.2634 38.2989 17 37.663 17 37V34.5ZM27 27C27.663 27 28.2989 27.2634 28.7678 27.7322C29.2366 28.2011 29.5 28.837 29.5 29.5V37C29.5 37.663 29.2366 38.2989 28.7678 38.7678C28.2989 39.2366 27.663 39.5 27 39.5C26.337 39.5 25.7011 39.2366 25.2322 38.7678C24.7634 38.2989 24.5 37.663 24.5 37V29.5C24.5 28.837 24.7634 28.2011 25.2322 27.7322C25.7011 27.2634 26.337 27 27 27Z" fill="#005883"/>
</svg>
