<svg width="36" height="40" viewBox="0 0 36 40" fill="none" xmlns="http://www.w3.org/2000/svg">
<path d="M33.1841 14.3092H32.2233V9.67408C32.2225 9.64464 32.2197 9.61528 32.2148 9.58623C32.2162 9.40002 32.1497 9.2197 32.0278 9.07893L24.3163 0.269236L24.3106 0.263568C24.2644 0.213679 24.212 0.169872 24.1547 0.133201L24.1037 0.102026C24.0547 0.0747876 24.003 0.0529324 23.9493 0.0368422L23.9068 0.0226722C23.8479 0.0079932 23.7875 0.000382329 23.7268 0H4.77115C3.90534 0 3.20249 0.704265 3.20249 1.56866V14.3078H2.24175C1.00326 14.3078 0 15.311 0 16.5495V28.2089C0 29.4459 1.00468 30.4506 2.24175 30.4506H3.20249V38.4313C3.20249 39.2957 3.90534 40 4.77115 40H30.6547C31.5191 40 32.2233 39.2957 32.2233 38.4313V30.4506H33.1841C34.4211 30.4506 35.4258 29.4474 35.4258 28.2089V16.5495C35.4258 15.3125 34.4226 14.3092 33.1841 14.3092ZM4.77115 1.56866H22.9418V9.59473C22.9418 10.0283 23.2932 10.3783 23.7268 10.3783H30.6561V14.3078H4.77115V1.56866V1.56866ZM16.507 23.0622C14.6025 22.382 13.3456 21.3278 13.3456 19.6627C13.3456 17.7087 14.995 16.2307 17.6803 16.2307C18.9897 16.2307 19.9235 16.4858 20.6037 16.8074L20.0255 18.8805C19.2845 18.5197 18.4705 18.334 17.6463 18.3378C16.524 18.3378 15.9799 18.8635 15.9799 19.4417C15.9799 20.1729 16.6076 20.4945 18.104 21.0557C20.1275 21.8039 21.0614 22.8567 21.0614 24.4722C21.0614 26.3937 19.6004 28.0247 16.456 28.0247C15.1467 28.0247 13.8557 27.6676 13.2096 27.3105L13.7367 25.1863C14.6265 25.6407 15.6086 25.885 16.6076 25.9005C17.7979 25.9005 18.4271 25.406 18.4271 24.6592C18.4271 23.945 17.8844 23.5383 16.507 23.0622V23.0622ZM3.00836 22.28C3.00836 18.3874 5.79566 16.2293 9.26173 16.2293C10.6051 16.2293 11.6239 16.4999 12.083 16.7224L11.5389 18.7785C10.8506 18.4895 10.1102 18.3448 9.36375 18.3534C7.32464 18.3534 5.72765 19.5933 5.72765 22.1426C5.72765 24.4197 7.08658 25.8651 9.38076 25.8651C10.18 25.8651 11.0302 25.7135 11.5559 25.491L11.9314 27.5301C11.4723 27.7498 10.384 28.0232 9.00808 28.0232C5.04747 28.0247 3.00836 25.5434 3.00836 22.28V22.28ZM30.6547 38.0091H4.77115V30.452H30.6547V38.0091V38.0091ZM28.5603 27.8546H25.5349L21.8648 16.3993H24.7031L26.0961 21.2442C26.4858 22.6201 26.8429 23.9124 27.1149 25.3394H27.1659C27.4557 23.9777 27.8013 22.6285 28.2018 21.2952L29.6642 16.4007H32.416L28.5603 27.8546V27.8546Z" fill="white"/>
</svg>
