<svg width="54" height="54" viewBox="0 0 54 54" fill="none" xmlns="http://www.w3.org/2000/svg">
<rect width="54" height="54" rx="14" fill="white"/>
<path d="M31.6617 26.3335L24 18.5435V25.8335C24 25.9661 24.0527 26.0932 24.1464 26.187C24.2402 26.2808 24.3674 26.3335 24.5 26.3335H31.6617Z" fill="#005883"/>
<path d="M21.3333 28.0003V17.6669H11C10.7348 17.6669 10.4804 17.7723 10.2929 17.9598C10.1054 18.1474 10 18.4017 10 18.6669V46.0003C10 46.2655 10.1054 46.5198 10.2929 46.7074C10.4804 46.8949 10.7348 47.0003 11 47.0003H31.6667C31.9319 47.0003 32.1862 46.8949 32.3738 46.7074C32.5613 46.5198 32.6667 46.2655 32.6667 46.0003V29.0003H22.3333C22.0681 29.0003 21.8138 28.8949 21.6262 28.7074C21.4387 28.5198 21.3333 28.2655 21.3333 28.0003ZM36.5 15.6669H43.6617L36 7.87695V15.1669C36 15.2996 36.0527 15.4267 36.1464 15.5205C36.2402 15.6143 36.3674 15.6669 36.5 15.6669Z" fill="#005883"/>
<path d="M34.3332 18.3333C34.068 18.3333 33.8137 18.228 33.6261 18.0404C33.4386 17.8529 33.3332 17.5985 33.3332 17.3333V7H20.3333C20.068 7 19.8137 7.10536 19.6261 7.29289C19.4386 7.48043 19.3333 7.73478 19.3333 8V15H22.8433C23.2913 15.0018 23.7345 15.0921 24.1475 15.2657C24.5605 15.4393 24.9352 15.6928 25.2499 16.0117L34.3466 25.2617C34.9812 25.9056 35.3356 26.7742 35.3324 27.6783V39H43.6666C43.9318 39 44.1861 38.8946 44.3737 38.7071C44.5612 38.5196 44.6666 38.2652 44.6666 38V18.3333H34.3332Z" fill="#005883"/>
</svg>
