<svg width="54" height="54" viewBox="0 0 54 54" fill="none" xmlns="http://www.w3.org/2000/svg">
<rect width="54" height="54" rx="14" fill="white"/>
<path d="M43.3603 23.38C41.9217 23.1197 40.4622 22.9925 39.0003 23C38.1603 23 37.3403 23 36.5203 23.16C35.4994 21.7978 34.1964 20.6721 32.7003 19.86C33.9854 18.4565 34.6988 16.623 34.7003 14.72C34.7003 12.6725 33.8869 10.7089 32.4391 9.26114C30.9914 7.81335 29.0277 7 26.9803 7C24.9328 7 22.9692 7.81335 21.5214 9.26114C20.0736 10.7089 19.2603 12.6725 19.2603 14.72C19.2617 16.623 19.9752 18.4565 21.2603 19.86C19.7731 20.6763 18.4721 21.7934 17.4403 23.14C16.6603 23 15.8403 23 15.0003 23C13.5371 23.0057 12.0776 23.1463 10.6403 23.42C10.1744 23.5052 9.75379 23.753 9.45346 24.1192C9.15314 24.4855 8.99254 24.9464 9.00027 25.42V41.92C8.99979 42.2138 9.06406 42.5041 9.1885 42.7703C9.31294 43.0365 9.4945 43.272 9.72027 43.46C9.94461 43.6492 10.2078 43.7866 10.4913 43.8627C10.7747 43.9387 11.0714 43.9515 11.3603 43.9C12.5571 43.6393 13.7758 43.492 15.0003 43.46C18.8745 43.4558 22.6646 44.5893 25.9003 46.72L26.1603 46.82C26.4256 46.9351 26.7111 46.9963 27.0003 47C27.1912 46.9976 27.3804 46.9638 27.5603 46.9H27.7003L27.9603 46.8C31.2267 44.6146 35.0702 43.4518 39.0003 43.46C40.2222 43.4657 41.4409 43.5862 42.6403 43.82C42.9292 43.8715 43.2259 43.8587 43.5093 43.7827C43.7927 43.7066 44.0559 43.5692 44.2803 43.38C44.506 43.192 44.6876 42.9565 44.812 42.6903C44.9365 42.4241 45.0007 42.1338 45.0003 41.84V25.34C44.9986 24.8733 44.8337 24.4218 44.5342 24.0639C44.2346 23.7059 43.8194 23.464 43.3603 23.38ZM27.0003 11C27.9372 11.0688 28.8133 11.4896 29.4528 12.1778C30.0923 12.8659 30.4477 13.7706 30.4477 14.71C30.4477 15.6494 30.0923 16.5541 29.4528 17.2422C28.8133 17.9304 27.9372 18.3512 27.0003 18.42C26.0634 18.3512 25.1872 17.9304 24.5477 17.2422C23.9083 16.5541 23.5528 15.6494 23.5528 14.71C23.5528 13.7706 23.9083 12.8659 24.5477 12.1778C25.1872 11.4896 26.0634 11.0688 27.0003 11ZM25.0003 41.66C21.8656 40.211 18.4536 39.4604 15.0003 39.46C14.3403 39.46 13.6803 39.46 13.0003 39.56V27C14.6774 26.8124 16.3719 26.846 18.0403 27.1H18.2603C20.6435 27.538 22.9272 28.4054 25.0003 29.66V41.66ZM27.0003 26.2C26.1109 25.687 25.1889 25.2327 24.2403 24.84H24.1203C23.4603 24.58 22.8003 24.32 22.1203 24.12C23.5089 23.0147 25.2256 22.4026 27.0003 22.38C28.7702 22.3912 30.4864 22.9891 31.8803 24.08C30.1824 24.6101 28.5464 25.3208 27.0003 26.2ZM41.0003 39.56C36.8936 39.1474 32.7512 39.8378 29.0003 41.56V29.56C31.0771 28.3376 33.3622 27.5103 35.7403 27.12H36.1403C37.7482 26.8696 39.3819 26.8293 41.0003 27V39.56Z" fill="#005883"/>
</svg>
