<svg width="131" height="104" viewBox="0 0 131 104" fill="none" xmlns="http://www.w3.org/2000/svg">
<path fill-rule="evenodd" clip-rule="evenodd" d="M10.5178 15.031C10.5178 17.0074 8.93144 18.5937 6.95505 18.5937C5.00466 18.5937 3.39233 17.0074 3.39233 15.031C3.39233 13.0806 5.00466 11.4683 6.95505 11.4683C8.95745 11.4683 10.5178 13.0806 10.5178 15.031Z" fill="#F47920"/>
<path fill-rule="evenodd" clip-rule="evenodd" d="M18.5534 7.07346C18.5534 9.02385 16.9671 10.6362 14.9907 10.6362C13.0403 10.6362 11.428 9.02385 11.428 7.07346C11.428 5.09706 13.0403 3.51074 14.9907 3.51074C16.9931 3.51074 18.5534 5.09706 18.5534 7.07346Z" fill="#F47920"/>
<path fill-rule="evenodd" clip-rule="evenodd" d="M30.5937 3.56271C30.5937 5.5131 29.0074 7.12542 27.057 7.12542C25.0546 7.12542 23.4683 5.5131 23.4683 3.56271C23.4683 1.58632 25.0546 0 27.057 0C29.0074 0 30.5937 1.56031 30.5937 3.56271Z" fill="#F47920"/>
<path fill-rule="evenodd" clip-rule="evenodd" d="M42.6862 7.09946C42.6862 9.04985 41.0999 10.6362 39.0975 10.6362C37.1471 10.6362 35.5608 9.04985 35.5608 7.09946C35.5608 5.09706 37.1471 3.51074 39.0975 3.51074C41.0999 3.51074 42.6862 5.09706 42.6862 7.09946Z" fill="#F47920"/>
<path fill-rule="evenodd" clip-rule="evenodd" d="M50.7477 15.031C50.7477 17.0074 49.1354 18.5937 47.185 18.5937C45.2086 18.5937 43.6223 17.0074 43.6223 15.031C43.6223 13.0806 45.2086 11.4683 47.185 11.4683C49.1354 11.4683 50.7477 13.0806 50.7477 15.031Z" fill="#F47920"/>
<path fill-rule="evenodd" clip-rule="evenodd" d="M87.4413 56.9773C87.4413 55.0009 85.855 53.4146 83.8786 53.4146C81.9282 53.4146 80.3159 55.0009 80.3159 56.9773C80.3159 58.9277 81.9282 60.54 83.8786 60.54C85.881 60.54 87.4413 58.9277 87.4413 56.9773Z" fill="#F47920"/>
<path fill-rule="evenodd" clip-rule="evenodd" d="M95.5029 64.9348C95.5029 62.9844 93.9166 61.3721 91.9402 61.3721C89.9898 61.3721 88.3774 62.9844 88.3774 64.9348C88.3774 66.9112 89.9898 68.4975 91.9402 68.4975C93.9166 68.4975 95.5029 66.9112 95.5029 64.9348Z" fill="#F47920"/>
<path fill-rule="evenodd" clip-rule="evenodd" d="M107.517 68.4455C107.517 66.4951 105.931 64.8828 103.981 64.8828C101.978 64.8828 100.392 66.4951 100.392 68.4455C100.392 70.4219 101.978 72.0082 103.981 72.0082C105.931 72.0342 107.517 70.4479 107.517 68.4455Z" fill="#F47920"/>
<path fill-rule="evenodd" clip-rule="evenodd" d="M119.61 64.9088C119.61 62.9584 118.023 61.3721 116.021 61.3721C114.071 61.3721 112.484 62.9584 112.484 64.9088C112.484 66.9112 114.071 68.4975 116.021 68.4975C118.023 68.4975 119.61 66.9112 119.61 64.9088Z" fill="#F47920"/>
<path fill-rule="evenodd" clip-rule="evenodd" d="M127.671 56.9773C127.671 55.0009 126.059 53.4146 124.109 53.4146C122.132 53.4146 120.546 55.0009 120.546 56.9773C120.546 58.9277 122.132 60.54 124.109 60.54C126.059 60.54 127.671 58.9277 127.671 56.9773Z" fill="#F47920"/>
<path d="M53.5565 22.8325H51.7361C49.8638 22.8325 48.5375 23.4046 47.7313 24.5749C46.8992 25.7711 46.4831 27.7215 46.4831 30.478V50.476C46.4831 54.6889 46.093 58.3296 45.2869 61.3982C44.4807 64.4408 42.5823 66.9893 39.5657 68.9917C36.5491 70.9941 32.5443 71.9823 27.4993 71.9823C22.6363 71.9823 18.6835 71.0722 15.6149 69.3038C12.5463 67.5354 10.5439 65.247 9.60772 62.4384C8.64553 59.6299 8.17744 55.313 8.17744 49.4618V30.192C8.17744 27.6695 7.83937 25.8231 7.16324 24.6269C6.51311 23.4306 5.05681 22.8065 2.84637 22.8065H1V21.4542H22.2983V22.8065H20.3999C18.8396 22.8065 17.5653 23.2486 16.6031 24.1068C15.6149 24.9649 15.1468 26.9933 15.1468 30.192V51.6983C15.1468 55.7811 15.5369 59.0317 16.3431 61.4502C17.1232 63.8687 18.5275 65.7151 20.4779 66.9633C22.4543 68.2116 24.9508 68.8357 27.9934 68.8357C30.88 68.8357 33.6105 68.2116 36.159 66.9633C38.7075 65.7151 40.5279 64.0247 41.6201 61.8663C42.7123 59.7079 43.2584 55.8071 43.2584 50.164V30.166C43.2584 26.8893 42.8164 24.8609 41.8802 24.0287C40.97 23.1966 39.6697 22.7805 38.0314 22.7805H36.133V21.4282H53.5565V22.8325Z" fill="#005883"/>
<path d="M81.9542 22.2606H80.9399C79.7177 22.2606 78.9115 22.5467 78.5215 23.1708C78.1054 23.7689 77.9233 24.8611 77.9233 26.4475V50.5803H77.1692L58.3154 27.5397V45.1452C58.3154 47.0176 58.5755 48.1878 59.0956 48.6299C59.6157 49.072 60.3698 49.306 61.358 49.306H62.3722V50.0862H52.4122V49.306H53.4004C54.2846 49.306 55.0128 49.098 55.6109 48.6299C56.183 48.1878 56.4691 47.0176 56.4691 45.1192V25.2252C55.5069 24.107 54.6227 23.3268 53.7645 22.9108C52.9063 22.4687 51.9442 22.2606 50.8259 22.2606V21.4805H58.6015L76.103 42.9608V26.4475C76.103 24.5751 75.8429 23.4309 75.2968 22.9628C74.7767 22.4947 74.0226 22.2866 73.0344 22.2866H72.0462V21.5065H82.0062V22.2606H81.9542Z" fill="#005883"/>
<path d="M95.5547 50.5279L93.9164 44.8068H86.1149L84.3725 50.5279H77.1431L86.1149 21.4541H95.5547L104.657 50.5279H95.5547ZM87.6492 38.4615H92.3821L90.0156 30.0358L87.6492 38.4615ZM105.151 50.5279V21.4541H116.385C121.274 21.4541 124.915 22.9104 127.359 25.797C129.778 28.6835 131 32.0382 131 35.835C131 40.1778 129.7 43.7146 127.099 46.4451C124.499 49.1756 121.118 50.5279 116.957 50.5279H105.151ZM114.07 43.8446H116.385C117.867 43.8446 119.115 43.1164 120.13 41.6861C121.144 40.2559 121.638 38.3055 121.638 35.835C121.638 33.7025 121.196 31.8822 120.286 30.3739C119.375 28.8396 118.075 28.0594 116.385 28.0594H114.07V43.8446Z" fill="#F0B429"/>
<path d="M8.74955 101.082H7.5013L6.51311 98.2217H2.89838L2.01421 101.082H1L4.17264 91.2783H5.57692L8.74955 101.082ZM6.25305 97.2855L4.74475 92.5786L3.21044 97.2855H6.25305ZM10.3359 101.082H9.78976V91.2783H10.908V95.0231C11.4281 94.0869 12.1302 93.6188 13.0404 93.6188C13.8726 93.6188 14.5747 93.9569 15.1208 94.607C15.6929 95.2571 15.953 96.2193 15.953 97.4676C15.953 98.5338 15.6669 99.4439 15.1208 100.172C14.5747 100.9 13.8466 101.264 12.9624 101.264C11.9742 101.264 11.22 100.796 10.6999 99.886L10.3359 101.082ZM10.934 98.2217C10.986 98.9498 11.22 99.496 11.6101 99.834C12.0002 100.172 12.4423 100.328 12.8844 100.328C13.4565 100.328 13.9246 100.068 14.2627 99.574C14.6007 99.0799 14.7828 98.4037 14.7828 97.5196C14.7828 96.5834 14.6267 95.8552 14.2627 95.3351C13.9246 94.815 13.4565 94.529 12.8584 94.529C12.3903 94.529 11.9482 94.711 11.5841 95.1011C11.194 95.4912 10.986 95.9593 10.908 96.5834V98.2217H10.934ZM18.8656 92.5266H17.6433V91.2783H18.8656V92.5266ZM18.8136 101.082H17.6953V93.8268H18.8136V101.082ZM25.835 98.9238L26.8752 99.1319C26.6931 99.756 26.3031 100.25 25.757 100.666C25.2108 101.082 24.5607 101.264 23.8066 101.264C22.8184 101.264 22.0122 100.926 21.4141 100.224C20.79 99.522 20.5039 98.6118 20.5039 97.4936C20.5039 96.3493 20.816 95.4131 21.4661 94.711C22.0902 94.0089 22.8964 93.6448 23.8586 93.6448C24.7948 93.6448 25.5749 93.9829 26.147 94.633C26.7191 95.2831 27.0312 96.2713 27.0312 97.5716H21.7782C21.7782 98.6638 22.0122 99.4179 22.4803 99.782C22.9484 100.172 23.4165 100.354 23.9366 100.354C24.8208 100.354 25.4709 99.86 25.835 98.9238ZM25.783 96.7134C25.783 96.2973 25.7049 95.9332 25.5749 95.6212C25.4449 95.3091 25.2368 95.0491 24.9508 94.815C24.6647 94.581 24.3007 94.477 23.8846 94.477C23.3385 94.477 22.8444 94.685 22.4543 95.0751C22.0642 95.4652 21.8562 96.0113 21.8042 96.6874H25.783V96.7134ZM29.8398 101.082H28.7215V93.8268H29.7097V95.5172C30.0478 94.711 30.4119 94.2169 30.7499 93.9569C31.114 93.7228 31.4521 93.5928 31.8422 93.5928C31.9462 93.5928 32.1022 93.5928 32.2843 93.6188V94.685H32.0502C31.4261 94.685 30.906 94.919 30.4899 95.3871C30.0738 95.8552 29.8658 96.4534 29.8398 97.2075V101.082ZM37.3293 100.302V101.186C36.9392 101.238 36.5751 101.264 36.2891 101.264C34.8848 101.264 34.1826 100.536 34.1826 99.0799V94.711H32.9084V93.8268H34.1826L34.2346 92.0065L35.2749 91.9024V93.8268H36.8872V94.711H35.2749V99.2619C35.2749 100.016 35.6649 100.38 36.4451 100.38C36.7051 100.38 36.9912 100.354 37.3293 100.302ZM44.2206 101.082H43.1024C43.0504 100.848 43.0244 100.406 42.9724 99.782C42.4783 100.77 41.6201 101.29 40.4239 101.29C39.6177 101.29 38.9936 101.082 38.5515 100.64C38.1094 100.198 37.9014 99.704 37.9014 99.0799C37.9014 98.3517 38.2134 97.7536 38.8376 97.2855C39.4617 96.8174 40.5279 96.5834 42.0102 96.5834C42.2182 96.5834 42.5303 96.5834 42.9724 96.6094C42.9724 96.0373 42.9204 95.6212 42.8424 95.3611C42.7643 95.1011 42.5563 94.893 42.2703 94.737C41.9842 94.581 41.6201 94.503 41.126 94.503C39.9818 94.503 39.3057 94.9451 39.1236 95.8032L38.0834 95.6212C38.3435 94.2949 39.4097 93.6188 41.2821 93.6188C42.2702 93.6188 42.9984 93.8528 43.4145 94.2949C43.8306 94.737 44.0386 95.4912 44.0386 96.5834V99.678C44.0646 100.172 44.1166 100.64 44.2206 101.082ZM42.9724 97.4415C42.5043 97.4155 42.1662 97.3895 41.9322 97.3895C41.048 97.3895 40.3459 97.5456 39.8518 97.8316C39.3577 98.1177 39.1236 98.5338 39.1236 99.1059C39.1236 99.47 39.2537 99.756 39.5137 100.016C39.7738 100.276 40.1638 100.38 40.6579 100.38C41.3341 100.38 41.9062 100.12 42.3223 99.652C42.7643 99.1579 42.9724 98.5858 42.9724 97.9096C42.9984 97.7796 42.9984 97.6236 42.9724 97.4415ZM56.261 93.8268L53.3485 101.914C52.9324 103.085 52.2562 103.657 51.3201 103.657C51.034 103.657 50.6959 103.605 50.3579 103.501V102.617C50.6439 102.695 50.904 102.721 51.112 102.721C51.4761 102.721 51.7622 102.617 52.0222 102.409C52.2563 102.201 52.4903 101.706 52.7503 100.926L50.2538 93.8268H51.3981L53.3225 99.2619L55.2989 93.8268H56.261ZM68.0154 101.082H66.8972C66.8452 100.848 66.8192 100.406 66.7672 99.782C66.273 100.77 65.4149 101.29 64.2186 101.29C63.4125 101.29 62.7884 101.082 62.3463 100.64C61.9042 100.198 61.6961 99.704 61.6961 99.0799C61.6961 98.3517 62.0082 97.7536 62.6323 97.2855C63.2564 96.8174 64.3227 96.5834 65.805 96.5834C66.013 96.5834 66.3251 96.5834 66.7672 96.6094C66.7672 96.0373 66.7151 95.6212 66.6371 95.3611C66.5591 95.1011 66.3511 94.893 66.065 94.737C65.779 94.581 65.4149 94.503 64.9468 94.503C63.8026 94.503 63.1264 94.9451 62.9444 95.8032L61.9042 95.6212C62.1642 94.2949 63.2304 93.6188 65.1028 93.6188C66.091 93.6188 66.8192 93.8528 67.2352 94.2949C67.6513 94.737 67.8594 95.4912 67.8594 96.5834V99.678C67.8594 100.172 67.9114 100.64 68.0154 101.082ZM66.7672 97.4415C66.2991 97.4155 65.961 97.3895 65.7269 97.3895C64.8428 97.3895 64.1406 97.5456 63.6465 97.8316C63.1524 98.1177 62.9184 98.5338 62.9184 99.1059C62.9184 99.47 63.0484 99.756 63.3085 100.016C63.5685 100.276 63.9586 100.38 64.4527 100.38C65.1288 100.38 65.7009 100.12 66.143 99.652C66.5851 99.1579 66.7932 98.5858 66.7932 97.9096C66.7672 97.7796 66.7672 97.6236 66.7672 97.4415ZM75.1668 101.082V91.2783H78.4435C79.8218 91.2783 80.914 91.7464 81.6681 92.6826C82.4483 93.6188 82.8124 94.789 82.8124 96.1413C82.8124 97.5196 82.4483 98.6898 81.6941 99.626C80.94 100.588 80.0038 101.056 78.8336 101.056H75.1668V101.082ZM76.3891 100.042H78.3655C79.4057 100.042 80.2118 99.678 80.7579 98.9499C81.3041 98.2217 81.5641 97.2595 81.5641 96.0633C81.5641 95.1011 81.3041 94.2169 80.784 93.4628C80.2639 92.6826 79.4577 92.3185 78.3395 92.3185H76.3631V100.042H76.3891ZM85.7249 92.5266H84.5027V91.2783H85.7249V92.5266ZM85.6989 101.082H84.5807V93.8268H85.6989V101.082ZM86.9472 99.1839L88.0134 98.9759C88.2474 99.886 89.0016 100.354 90.2759 100.354C90.7439 100.354 91.134 100.25 91.4721 100.042C91.8102 99.834 91.9662 99.548 91.9662 99.1579C91.9662 98.5858 91.5501 98.2217 90.7179 98.0657L89.1836 97.7796C88.5855 97.6756 88.1174 97.4416 87.7533 97.1035C87.3893 96.7654 87.2332 96.3233 87.2332 95.7772C87.2332 95.1791 87.4673 94.659 87.9614 94.2429C88.4555 93.8268 89.0796 93.6188 89.9118 93.6188C91.4721 93.6188 92.4603 94.2429 92.8244 95.4652L91.7842 95.6992C91.4981 94.9451 90.874 94.555 89.9638 94.555C89.4957 94.555 89.1316 94.659 88.8456 94.841C88.5595 95.0231 88.4035 95.2831 88.4035 95.6212C88.4035 96.1673 88.7935 96.5054 89.5217 96.6354L90.926 96.8954C92.4083 97.1555 93.1364 97.8836 93.1364 99.0279C93.1364 99.704 92.8504 100.224 92.3043 100.64C91.7581 101.056 91.03 101.264 90.1198 101.264C88.4295 101.264 87.3633 100.588 86.9472 99.1839ZM98.0254 100.302V101.186C97.6353 101.238 97.2712 101.264 96.9852 101.264C95.5809 101.264 94.8788 100.536 94.8788 99.0799V94.711H93.6045V93.8268H94.8788L94.9308 92.0065L95.971 91.9024V93.8268H97.5833V94.711H95.971V99.2619C95.971 100.016 96.3611 100.38 97.1412 100.38C97.4273 100.38 97.7133 100.354 98.0254 100.302ZM104.943 101.082H103.825C103.773 100.848 103.747 100.406 103.695 99.782C103.2 100.77 102.342 101.29 101.146 101.29C100.34 101.29 99.7157 101.082 99.2737 100.64C98.8316 100.198 98.6235 99.704 98.6235 99.0799C98.6235 98.3517 98.9356 97.7536 99.5597 97.2855C100.184 96.8174 101.25 96.5834 102.732 96.5834C102.94 96.5834 103.252 96.5834 103.695 96.6094C103.695 96.0373 103.643 95.6212 103.565 95.3611C103.486 95.1011 103.278 94.893 102.992 94.737C102.706 94.581 102.316 94.503 101.874 94.503C100.73 94.503 100.054 94.9451 99.8718 95.8032L98.8316 95.6212C99.0916 94.2949 100.158 93.6188 102.03 93.6188C103.018 93.6188 103.747 93.8528 104.163 94.2949C104.579 94.737 104.787 95.4912 104.787 96.5834V99.678C104.787 100.172 104.839 100.64 104.943 101.082ZM103.695 97.4415C103.226 97.4155 102.888 97.3895 102.654 97.3895C101.77 97.3895 101.068 97.5456 100.574 97.8316C100.08 98.1177 99.8458 98.5338 99.8458 99.1059C99.8458 99.47 99.9758 99.756 100.236 100.016C100.496 100.276 100.886 100.38 101.38 100.38C102.056 100.38 102.628 100.12 103.044 99.652C103.486 99.1579 103.695 98.5858 103.695 97.9096C103.721 97.7796 103.695 97.6236 103.695 97.4415ZM112.744 101.082H111.678V96.4273C111.678 95.7512 111.522 95.2831 111.236 95.0231C110.95 94.763 110.586 94.607 110.17 94.607C109.598 94.607 109.104 94.841 108.714 95.3091C108.323 95.7772 108.115 96.3753 108.115 97.1295V101.108H106.997V93.8528H108.037V95.1791C108.636 94.1649 109.39 93.6448 110.326 93.6448C110.872 93.6448 111.314 93.7748 111.704 94.0609C112.094 94.3469 112.354 94.659 112.484 94.9971C112.614 95.3351 112.692 95.9853 112.692 96.8954V101.082H112.744ZM119.272 98.5338L120.286 98.7158C120.13 99.522 119.818 100.146 119.324 100.588C118.83 101.03 118.205 101.264 117.477 101.264C116.489 101.264 115.709 100.9 115.189 100.172C114.669 99.4439 114.409 98.5338 114.409 97.4676C114.409 96.3753 114.695 95.4652 115.241 94.737C115.787 94.0089 116.541 93.6448 117.503 93.6448C118.283 93.6448 118.934 93.8788 119.402 94.3469C119.87 94.815 120.182 95.4131 120.286 96.1673L119.272 96.3493C119.09 95.1531 118.491 94.555 117.529 94.555C116.905 94.555 116.437 94.815 116.099 95.3611C115.761 95.8812 115.605 96.5834 115.605 97.4155C115.605 98.3517 115.761 99.0539 116.099 99.574C116.437 100.094 116.905 100.354 117.503 100.354C118.439 100.354 119.012 99.73 119.272 98.5338ZM122.99 92.5266H121.768V91.2783H122.99V92.5266ZM122.964 101.082H121.846V93.8268H122.964V101.082ZM130.87 101.082H129.752C129.7 100.848 129.674 100.406 129.622 99.782C129.128 100.77 128.269 101.29 127.073 101.29C126.267 101.29 125.643 101.082 125.201 100.64C124.759 100.198 124.551 99.704 124.551 99.0799C124.551 98.3517 124.863 97.7536 125.487 97.2855C126.111 96.8174 127.177 96.5834 128.66 96.5834C128.868 96.5834 129.18 96.5834 129.622 96.6094C129.622 96.0373 129.57 95.6212 129.492 95.3611C129.414 95.1011 129.206 94.893 128.92 94.737C128.634 94.581 128.243 94.503 127.775 94.503C126.631 94.503 125.955 94.9451 125.773 95.8032L124.733 95.6212C124.993 94.2949 126.059 93.6188 127.931 93.6188C128.92 93.6188 129.648 93.8528 130.064 94.2949C130.48 94.737 130.688 95.4912 130.688 96.5834V99.678C130.714 100.172 130.766 100.64 130.87 101.082ZM129.622 97.4415C129.154 97.4155 128.816 97.3895 128.582 97.3895C127.697 97.3895 126.995 97.5456 126.501 97.8316C126.007 98.1177 125.773 98.5338 125.773 99.1059C125.773 99.47 125.903 99.756 126.163 100.016C126.423 100.276 126.813 100.38 127.307 100.38C127.983 100.38 128.556 100.12 128.972 99.652C129.414 99.1579 129.622 98.5858 129.622 97.9096C129.648 97.7796 129.648 97.6236 129.622 97.4415Z" fill="#F47920" stroke="#F47920" stroke-width="0.2271" stroke-miterlimit="22.926" stroke-linecap="round" stroke-linejoin="round"/>
<path d="M7.7353 76.8453H8.74951V83.2426C8.74951 84.5169 8.43745 85.4531 7.81332 85.9992C7.1892 86.5453 6.35703 86.8313 5.34283 86.8313C4.2246 86.8313 3.36643 86.5453 2.82032 85.9732C2.27421 85.4011 2.01416 84.4909 2.01416 83.2426V76.8453H3.2364V83.2426C3.2364 83.9968 3.31442 84.5429 3.49646 84.8549C3.67849 85.167 3.93855 85.4011 4.30262 85.5311C4.66669 85.6871 5.03076 85.7651 5.42084 85.7651C6.17499 85.7651 6.74711 85.5571 7.13718 85.167C7.52726 84.7769 7.7353 84.1268 7.7353 83.2426V76.8453ZM16.6031 86.6493H15.5369V81.9944C15.5369 81.3182 15.3808 80.8501 15.0948 80.5901C14.8087 80.33 14.4446 80.174 14.0286 80.174C13.4564 80.174 12.9884 80.4081 12.5983 80.8761C12.2082 81.3442 12.0002 81.9424 12.0002 82.6965V86.6753H10.8819V79.4199H11.9221V80.7461C12.5203 79.7319 13.2744 79.2118 14.2106 79.2118C14.7567 79.2118 15.2248 79.3418 15.5889 79.6279C15.979 79.914 16.239 80.226 16.369 80.5641C16.4991 80.9022 16.5771 81.5523 16.5771 82.4625V86.6493H16.6031ZM20.0098 78.0936H18.7875V76.8453H20.0098V78.0936ZM19.9577 86.6493H18.8395V79.3938H19.9577V86.6493ZM27.5253 79.3938L25.0288 86.6493H23.8585L21.258 79.3938H22.5063L24.5087 85.271L26.5111 79.3938H27.5253ZM33.3764 84.4909L34.4166 84.6989C34.2346 85.323 33.8445 85.8171 33.2984 86.2332C32.7523 86.6493 32.1022 86.8313 31.348 86.8313C30.3598 86.8313 29.5537 86.4933 28.9555 85.7911C28.3314 85.089 28.0454 84.1788 28.0454 83.0606C28.0454 81.9164 28.3574 80.9802 29.0076 80.278C29.6577 79.5759 30.4378 79.2118 31.4 79.2118C32.3362 79.2118 33.1164 79.5499 33.6885 80.2C34.2606 80.8501 34.5727 81.8383 34.5727 83.1386H29.3196C29.3196 84.2308 29.5537 84.985 29.9958 85.349C30.4638 85.7391 30.9319 85.9212 31.452 85.9212C32.3622 85.9212 33.0124 85.4271 33.3764 84.4909ZM33.3244 82.2804C33.3244 81.8643 33.2464 81.5003 33.1164 81.1882C32.9864 80.8761 32.7783 80.6161 32.4923 80.3821C32.2062 80.148 31.8421 80.044 31.426 80.044C30.8799 80.044 30.3858 80.252 29.9958 80.6421C29.6057 81.0582 29.3976 81.5783 29.3456 82.2544H33.3244V82.2804ZM37.3812 86.6493H36.263V79.3938H37.2512V81.0842C37.5893 80.278 37.9533 79.7579 38.2914 79.5239C38.6555 79.2898 38.9936 79.1598 39.3836 79.1598C39.4877 79.1598 39.6437 79.1598 39.8257 79.1858V80.252H39.5917C38.9675 80.252 38.4474 80.4861 38.0314 80.9542C37.6153 81.4223 37.4072 82.0204 37.3812 82.8005V86.6493ZM40.1898 84.7769L41.256 84.5689C41.4901 85.4791 42.2442 85.9472 43.5185 85.9472C43.9865 85.9472 44.3766 85.8431 44.7147 85.6351C45.0528 85.4271 45.2088 85.141 45.2088 84.7509C45.2088 84.1788 44.7927 83.8147 43.9605 83.6587L42.4262 83.3726C41.8281 83.2686 41.36 83.0346 40.996 82.6965C40.6319 82.3584 40.4759 81.9164 40.4759 81.3702C40.4759 80.7721 40.7099 80.252 41.204 79.8359C41.6981 79.4199 42.3482 79.2118 43.1544 79.2118C44.7407 79.2118 45.7029 79.8359 46.067 81.0582L45.0268 81.2922C44.7407 80.5381 44.1166 80.148 43.2064 80.148C42.7383 80.148 42.3742 80.252 42.0882 80.4341C41.8021 80.6161 41.6461 80.8761 41.6461 81.2142C41.6461 81.7603 42.0362 82.0984 42.7643 82.2284L44.1686 82.4885C45.6509 82.7485 46.379 83.4767 46.379 84.6209C46.379 85.297 46.093 85.8171 45.5469 86.2332C45.0008 86.6493 44.2726 86.8573 43.3624 86.8573C41.6721 86.8313 40.6059 86.1552 40.1898 84.7769ZM49.1356 78.0936H47.9133V76.8453H49.1356V78.0936ZM49.1096 86.6493H47.9914V79.3938H49.1096V86.6493ZM57.0152 76.8453V86.6233H56.001V85.375C55.4808 86.3372 54.7267 86.8053 53.7125 86.8053C52.8803 86.8053 52.1782 86.4413 51.6321 85.7391C51.086 85.037 50.8259 84.1268 50.8259 83.0606C50.8259 81.9424 51.086 81.0322 51.6321 80.278C52.1782 79.5499 52.8803 79.1598 53.7905 79.1598C54.6487 79.1598 55.3768 79.5499 55.9229 80.356V76.8193H57.0152V76.8453ZM55.8969 82.2024C55.8969 81.5523 55.6889 81.0582 55.3248 80.6681C54.9347 80.278 54.4927 80.096 53.9725 80.096C53.4004 80.096 52.9583 80.356 52.5943 80.8501C52.2302 81.3442 52.0482 82.0464 52.0482 82.9306C52.0482 83.8928 52.2042 84.6469 52.5423 85.141C52.8803 85.6351 53.3224 85.8951 53.9205 85.8951C54.4406 85.8951 54.9087 85.6871 55.2988 85.245C55.7149 84.8029 55.8969 84.2828 55.8969 83.6847V82.2024ZM64.9207 86.6493H63.8025C63.7505 86.4153 63.7245 85.9992 63.6725 85.349C63.1784 86.3372 62.3202 86.8573 61.124 86.8573C60.3178 86.8573 59.6937 86.6493 59.2516 86.2072C58.8095 85.7651 58.6015 85.271 58.6015 84.6469C58.6015 83.9188 58.9135 83.3206 59.5377 82.8525C60.1618 82.3845 61.202 82.1504 62.7103 82.1504C62.9183 82.1504 63.2304 82.1504 63.6725 82.1764C63.6725 81.6043 63.6205 81.1882 63.5425 80.9282C63.4644 80.6681 63.2564 80.4601 62.9704 80.304C62.6843 80.148 62.2942 80.07 61.8521 80.07C60.7079 80.07 60.0318 80.5121 59.8497 81.3702L58.8095 81.1882C59.0696 79.8619 60.1358 79.1858 62.0082 79.1858C62.9964 79.1858 63.7245 79.4199 64.1406 79.8619C64.5567 80.304 64.7647 81.0582 64.7647 82.1504V85.219C64.7647 85.7391 64.8167 86.2072 64.9207 86.6493ZM63.6985 83.0346C63.2304 83.0086 62.8923 82.9826 62.6583 82.9826C61.7741 82.9826 61.072 83.1386 60.5779 83.4247C60.0838 83.7107 59.8497 84.1528 59.8497 84.6989C59.8497 85.063 59.9798 85.349 60.2398 85.6091C60.4999 85.8691 60.8899 85.9732 61.384 85.9732C62.0602 85.9732 62.6323 85.7131 63.0484 85.245C63.4905 84.7509 63.6985 84.1788 63.6985 83.5027C63.6985 83.3726 63.6985 83.2166 63.6985 83.0346ZM72.6963 76.8453V86.6233H71.6821V85.375C71.188 86.3372 70.4078 86.8053 69.3936 86.8053C68.5355 86.8053 67.8593 86.4413 67.3132 85.7391C66.7671 85.037 66.507 84.1268 66.507 83.0606C66.507 81.9424 66.7671 81.0322 67.3132 80.278C67.8593 79.5499 68.5615 79.1598 69.4717 79.1598C70.3558 79.1598 71.058 79.5499 71.6041 80.356V76.8193H72.6963V76.8453ZM71.5521 82.2024C71.5521 81.5523 71.37 81.0582 70.9799 80.6681C70.5899 80.278 70.1478 80.096 69.6277 80.096C69.0556 80.096 68.6135 80.356 68.2494 80.8501C67.8853 81.3442 67.7033 82.0464 67.7033 82.9306C67.7033 83.8928 67.8593 84.6469 68.1974 85.141C68.5355 85.6351 68.9775 85.8951 69.5757 85.8951C70.0958 85.8951 70.5639 85.6871 70.9539 85.245C71.344 84.8029 71.5521 84.2828 71.5521 83.6847V82.2024ZM85.9069 86.6493H84.7107L79.6397 78.1196L79.6657 78.7697C79.6917 79.0038 79.6917 79.2118 79.6917 79.3938V86.6753H78.7035V76.8973H80.2378L84.9707 84.8809L84.9447 84.2048C84.9447 83.9448 84.9187 83.7107 84.9187 83.5027V76.9234H85.8809V86.6493H85.9069ZM93.9165 86.6493H92.7983C92.7463 86.4153 92.7203 85.9992 92.6683 85.349C92.1742 86.3372 91.316 86.8573 90.1198 86.8573C89.3136 86.8573 88.6895 86.6493 88.2474 86.2072C87.8053 85.7651 87.5973 85.271 87.5973 84.6469C87.5973 83.9188 87.9093 83.3206 88.5335 82.8525C89.1576 82.3845 90.2238 82.1504 91.7061 82.1504C91.9141 82.1504 92.2262 82.1504 92.6683 82.1764C92.6683 81.6043 92.6163 81.1882 92.5383 80.9282C92.4602 80.6681 92.2522 80.4601 91.9661 80.304C91.6801 80.148 91.29 80.07 90.8479 80.07C89.7037 80.07 89.0276 80.5121 88.8455 81.3702L87.8053 81.1882C88.0654 79.8619 89.1316 79.1858 91.004 79.1858C91.9922 79.1858 92.7203 79.4199 93.1364 79.8619C93.5525 80.304 93.7605 81.0582 93.7605 82.1504V85.219C93.7605 85.7391 93.8125 86.2072 93.9165 86.6493ZM92.6943 83.0346C92.2262 83.0086 91.8881 82.9826 91.6541 82.9826C90.7699 82.9826 90.0678 83.1386 89.5737 83.4247C89.0796 83.7107 88.8455 84.1528 88.8455 84.6989C88.8455 85.063 88.9756 85.349 89.2356 85.6091C89.4957 85.8691 89.8857 85.9732 90.3798 85.9732C91.056 85.9732 91.6281 85.7131 92.0442 85.245C92.4863 84.7509 92.6943 84.1788 92.6943 83.5027C92.6943 83.3726 92.6943 83.2166 92.6943 83.0346ZM100.314 84.1008L101.328 84.2828C101.172 85.089 100.86 85.7131 100.366 86.1552C99.8717 86.5973 99.2736 86.8313 98.5195 86.8313C97.5313 86.8313 96.7511 86.4673 96.231 85.7391C95.7109 85.011 95.4508 84.1008 95.4508 83.0346C95.4508 81.9424 95.7369 81.0322 96.283 80.304C96.8291 79.5759 97.5833 79.2118 98.5455 79.2118C99.3256 79.2118 99.9757 79.4459 100.444 79.914C100.912 80.382 101.224 80.9802 101.328 81.7343L100.314 81.9164C100.132 80.7201 99.5337 80.122 98.5715 80.122C97.9473 80.122 97.4792 80.3821 97.1412 80.9022C96.8031 81.4223 96.6471 82.1244 96.6471 82.9566C96.6471 83.8928 96.8031 84.5949 97.1412 85.115C97.4792 85.6351 97.9473 85.8951 98.5455 85.8951C99.4556 85.9212 100.054 85.323 100.314 84.1008ZM104.033 78.0936H102.81V76.8453H104.033V78.0936ZM103.981 86.6493H102.862V79.3938H103.981V86.6493ZM108.844 86.8313C107.855 86.8313 107.075 86.4673 106.503 85.7391C105.957 85.011 105.671 84.1008 105.671 83.0086C105.671 81.8643 105.983 80.9282 106.607 80.252C107.231 79.5759 108.011 79.2118 108.948 79.2118C109.936 79.2118 110.742 79.5759 111.314 80.304C111.886 81.0322 112.172 81.9424 112.172 83.0086C112.172 84.1268 111.86 85.063 111.236 85.7651C110.612 86.4933 109.806 86.8313 108.844 86.8313ZM108.922 85.9212C109.494 85.9212 109.962 85.6871 110.352 85.219C110.742 84.7509 110.924 84.0228 110.924 83.0086C110.924 81.9944 110.716 81.2662 110.326 80.8241C109.91 80.382 109.442 80.148 108.896 80.148C108.323 80.148 107.855 80.382 107.465 80.8241C107.075 81.2662 106.893 81.9944 106.893 82.9826C106.893 84.0228 107.075 84.7769 107.465 85.219C107.881 85.6871 108.349 85.9212 108.922 85.9212ZM119.584 86.6493H118.517V81.9944C118.517 81.3182 118.361 80.8501 118.075 80.5901C117.789 80.33 117.425 80.174 117.009 80.174C116.437 80.174 115.943 80.4081 115.579 80.8761C115.189 81.3442 114.981 81.9424 114.981 82.6965V86.6753H113.863V79.4199H114.903V80.7461C115.501 79.7319 116.255 79.2118 117.191 79.2118C117.737 79.2118 118.205 79.3418 118.569 79.6279C118.96 79.914 119.22 80.226 119.35 80.5641C119.48 80.9022 119.558 81.5523 119.558 82.4625V86.6493H119.584ZM127.489 86.6493H126.371C126.319 86.4153 126.293 85.9992 126.241 85.349C125.747 86.3372 124.889 86.8573 123.692 86.8573C122.886 86.8573 122.262 86.6493 121.82 86.2072C121.378 85.7651 121.17 85.271 121.17 84.6469C121.17 83.9188 121.482 83.3206 122.106 82.8525C122.73 82.3845 123.797 82.1504 125.279 82.1504C125.487 82.1504 125.799 82.1504 126.241 82.1764C126.241 81.6043 126.189 81.1882 126.111 80.9282C126.033 80.6681 125.825 80.4601 125.539 80.304C125.253 80.148 124.863 80.07 124.421 80.07C123.276 80.07 122.6 80.5121 122.418 81.3702L121.378 81.1882C121.638 79.8619 122.704 79.1858 124.577 79.1858C125.565 79.1858 126.293 79.4199 126.709 79.8619C127.125 80.304 127.333 81.0582 127.333 82.1504V85.219C127.333 85.7391 127.385 86.2072 127.489 86.6493ZM126.241 83.0346C125.773 83.0086 125.435 82.9826 125.201 82.9826C124.317 82.9826 123.614 83.1386 123.12 83.4247C122.626 83.7107 122.392 84.1528 122.392 84.6989C122.392 85.063 122.522 85.349 122.782 85.6091C123.042 85.8691 123.432 85.9732 123.927 85.9732C124.603 85.9732 125.175 85.7131 125.591 85.245C126.033 84.7509 126.241 84.1788 126.241 83.5027C126.267 83.3726 126.267 83.2166 126.241 83.0346ZM130.714 86.6493H129.596V76.8713H130.714V86.6493Z" fill="#005883" stroke="#005883" stroke-width="0.2271" stroke-miterlimit="22.926" stroke-linecap="round" stroke-linejoin="round"/>
</svg>
