<svg width="248" height="179" viewBox="0 0 248 179" fill="none" xmlns="http://www.w3.org/2000/svg">
<mask id="mask0_807_86" style="mask-type:alpha" maskUnits="userSpaceOnUse" x="0" y="0" width="248" height="179">
<rect width="248" height="179" fill="#D9D9D9"/>
</mask>
<g mask="url(#mask0_807_86)">
<path d="M171.366 14.6865C171.366 14.6865 174.246 41.5287 164.501 48.5628L161.512 18.9214L171.366 14.6865Z" fill="#333A3F"/>
<path d="M165.378 59.941L150.881 72.1163L143.717 59.941L142.332 35.2214H163.993L165.378 59.941Z" fill="#FFC3AB"/>
<path d="M163.276 31.3462V14.0596H129.878V20.6649C129.878 20.6649 128.353 45.3546 135.946 51.1142C144.783 57.7997 164.541 48.9019 163.276 31.3462Z" fill="#FFC3AB"/>
<path d="M147.117 32.0444C147.024 30.9257 148.612 29.8809 150.663 29.711C152.714 29.5411 154.452 30.3105 154.544 31.4292C154.637 32.5479 153.049 33.5927 150.998 33.7626C148.947 33.9326 147.21 33.1632 147.117 32.0444Z" fill="#FE9B8B"/>
<path d="M129.772 32.8229C129.702 31.9733 130.864 31.1826 132.366 31.0583C133.869 30.934 135.143 31.5225 135.214 32.3729C135.284 33.2226 134.123 34.0125 132.62 34.1368C131.118 34.2611 129.843 33.6726 129.772 32.8229Z" fill="#FE9B8B"/>
<path d="M162.042 36.3875C159.984 35.2751 159.4 32.3681 160.738 29.8947C162.074 27.4212 164.826 26.3175 166.883 27.4291C168.941 28.5407 169.524 31.4477 168.188 33.9219C166.85 36.3954 164.099 37.4991 162.042 36.3875Z" fill="#FFC3AB"/>
<path d="M166.115 30.738L164.531 33.9864" stroke="#FE9B8B" stroke-width="1.4" stroke-miterlimit="10"/>
<path d="M132.708 22.0596L133.067 22.01C133.758 21.9534 134.453 21.977 135.139 22.0793C135.281 22.0919 135.42 22.1375 135.543 22.2114C135.665 22.2854 135.769 22.3869 135.846 22.508C135.909 22.6591 135.925 22.8259 135.891 22.9856C135.857 23.1461 135.776 23.2924 135.657 23.4049C135.414 23.626 135.119 23.7833 134.8 23.8628C134.206 24.0453 133.595 24.1688 132.977 24.2317C132.393 24.3317 131.797 24.3317 131.213 24.2317C131.098 24.205 130.988 24.1538 130.894 24.0815C130.8 24.0091 130.722 23.9178 130.665 23.8132C130.615 23.6079 130.632 23.3923 130.712 23.1972C130.793 23.0021 130.933 22.8377 131.113 22.7275C131.581 22.3759 132.129 22.1461 132.708 22.0596Z" fill="#333A3F"/>
<path d="M148.45 22.1196L148.101 22.0401C147.419 21.9095 146.723 21.8623 146.029 21.9001C145.887 21.9016 145.747 21.9339 145.618 21.9937C145.489 22.0543 145.375 22.1408 145.282 22.2494C145.205 22.3941 145.173 22.5593 145.19 22.723C145.208 22.8866 145.275 23.0408 145.382 23.1659C145.602 23.409 145.88 23.5939 146.189 23.704C146.759 23.9495 147.353 24.1367 147.962 24.2618C148.535 24.4239 149.131 24.4884 149.726 24.4514C149.843 24.4349 149.955 24.394 150.055 24.3303C150.155 24.2665 150.24 24.1823 150.304 24.0824C150.513 23.704 150.244 23.2359 149.965 22.9669C149.537 22.5641 149.017 22.273 148.45 22.1196Z" fill="#333A3F"/>
<path d="M133.475 29.0246C132.984 29.0246 132.588 28.4849 132.588 27.8185C132.588 27.153 132.984 26.6133 133.475 26.6133C133.964 26.6133 134.361 27.153 134.361 27.8185C134.361 28.4849 133.964 29.0246 133.475 29.0246Z" fill="#333A3F"/>
<path d="M145.839 28.4965C145.349 28.4965 144.952 27.956 144.952 27.2905C144.952 26.6249 145.349 26.0852 145.839 26.0852C146.329 26.0852 146.725 26.6249 146.725 27.2905C146.725 27.956 146.329 28.4965 145.839 28.4965Z" fill="#333A3F"/>
<path d="M136.982 37.8122C138.056 38.3 139.244 38.4864 140.416 38.3511C141.588 38.2158 142.702 37.7642 143.637 37.0452" stroke="#333A3F" stroke-width="1.4" stroke-miterlimit="10" stroke-linecap="round"/>
<path d="M140.589 24.73C139.881 27.4308 139.462 29.8618 137.43 31.9639C136.902 32.4029 136.495 32.9685 136.245 33.6081C135.747 35.6009 138.466 34.8834 139.373 35.4514" stroke="#FE9B8B" stroke-width="1.4" stroke-miterlimit="10"/>
<path d="M143.349 53.3152C143.349 53.3152 152.824 52.608 158.294 46.2615C158.294 46.2615 154.239 56.075 143.627 58.0285L143.349 53.3152Z" fill="#FE9B8B"/>
<path d="M162.847 2.73053C169.044 6.21728 172.681 13.013 171.077 20.3555C170.931 21.3302 170.517 22.2444 169.881 22.9965C169.557 23.3639 169.12 23.6141 168.639 23.7077C168.158 23.8013 167.659 23.7336 167.221 23.5142C166.872 23.3049 166.553 22.9461 166.145 22.9863C165.895 23.0343 165.67 23.1688 165.507 23.3647C164.666 24.1915 164.051 25.2206 163.724 26.3542L163.325 32.5709C163.325 32.5709 161.612 32.9596 161.492 32.5709C161.372 32.1823 160.834 24.411 160.834 24.411C159.399 21.2429 158.622 17.8852 157.197 14.7068C156.809 13.8595 147.921 15.9522 146.825 16.0914C141.535 16.7074 136.208 16.9372 130.884 16.779C129.607 16.8703 128.333 16.5643 127.237 15.9018C123.849 13.3418 126.669 8.5688 128.871 6.24718C131.96 3.00903 136.692 1.89346 140.937 1.08629C147.124 -0.0796354 153.63 -0.697195 159.609 1.28534C160.731 1.66533 161.815 2.14915 162.847 2.73053Z" fill="#333A3F"/>
<path d="M213.153 256.433C205.478 260.993 197.21 264.469 188.583 266.766C163.425 273.591 136.493 272.036 111.026 267.881C94.3674 265.171 77.0807 261.245 63.6003 250.465C59.0459 246.94 55.3523 242.425 52.7993 237.263C47.987 227.16 49.5014 214.935 54.2343 204.792C69.4786 172.111 105.946 155.851 124.548 125.511C132.339 112.828 137.43 98.2712 147.633 87.4309C161.173 73.0237 184.628 65.3217 203.718 72.1071C214.987 76.0927 220.049 84.3619 225.269 94.5948C231.524 106.89 236.53 119.781 240.215 133.074C244.797 149.573 247.379 166.563 247.906 183.679C248.534 204.125 246.272 223.214 232.831 239.674C227.285 246.351 220.628 252.02 213.153 256.433Z" fill="#F47920"/>
<path d="M136.773 86.5442L104.003 127.584C102.541 129.432 100.431 130.653 98.1011 130.998C95.7708 131.344 93.3965 130.788 91.462 129.444C89.5274 128.1 88.1782 126.069 87.6888 123.765C87.1995 121.461 87.607 119.057 88.828 117.043L115.879 72.0174C117.657 69.1938 120.47 67.179 123.715 66.4049C126.96 65.6315 130.38 66.1602 133.24 67.8784C136.1 69.5966 138.173 72.3667 139.014 75.5954C139.856 78.8241 139.398 82.2542 137.739 85.1493C137.443 85.6316 137.12 86.0973 136.773 86.5442Z" fill="#005883"/>
<path d="M98.5716 131.859L42.7254 146.595C41.2212 146.979 39.6273 146.775 38.267 146.025C36.9076 145.275 35.884 144.035 35.4057 142.559C34.9274 141.081 35.0296 139.477 35.6913 138.073C36.3537 136.668 37.5259 135.569 38.9696 134.997L92.8427 114.183C93.989 113.709 95.2186 113.469 96.4593 113.477C97.6991 113.485 98.9256 113.74 100.066 114.23C101.206 114.718 102.237 115.429 103.098 116.323C103.959 117.216 104.633 118.272 105.08 119.429C105.527 120.586 105.739 121.821 105.702 123.061C105.664 124.3 105.38 125.521 104.865 126.649C104.349 127.778 103.613 128.791 102.7 129.631C101.787 130.472 100.715 131.12 99.5479 131.54C99.2301 131.668 98.9044 131.775 98.5716 131.859Z" fill="#005883"/>
<path d="M70.9137 161.052L72.6673 252.528C72.7303 254.978 71.8507 257.359 70.208 259.178C68.5661 260.998 66.287 262.116 63.8435 262.304C61.3999 262.49 58.9776 261.731 57.0776 260.182C55.1777 258.633 53.9465 256.414 53.6365 253.982L41.9096 163.313C41.6563 161.417 41.779 159.488 42.2715 157.638C42.7632 155.788 43.6153 154.054 44.778 152.534C45.94 151.013 47.3907 149.736 49.0468 148.776C50.7028 147.817 52.5312 147.192 54.4287 146.939C56.3255 146.685 58.2546 146.809 60.1042 147.301C61.9537 147.793 63.6885 148.644 65.2092 149.807C68.2798 152.155 70.2922 155.626 70.8036 159.458C70.8689 159.987 70.9051 160.519 70.9137 161.052Z" fill="#333A3F"/>
<path d="M152.376 192.836L57.2932 175.459C53.6617 174.796 50.4212 172.768 48.238 169.791C46.0549 166.813 45.0935 163.113 45.5529 159.45C46.0116 155.787 47.8557 152.439 50.7059 150.092C53.5562 147.746 57.1972 146.58 60.8806 146.834L157.308 153.419C160.022 153.447 162.701 154.029 165.183 155.129C167.664 156.229 169.894 157.825 171.737 159.818C173.579 161.81 174.995 164.159 175.898 166.719C176.8 169.278 177.171 171.995 176.986 174.703C176.801 177.411 176.065 180.052 174.823 182.466C173.581 184.879 171.859 187.013 169.762 188.737C167.666 190.461 165.239 191.738 162.632 192.491C160.024 193.244 157.29 193.456 154.597 193.114C153.852 193.062 153.11 192.969 152.376 192.836Z" fill="#333A3F"/>
<path d="M183.253 157.595L129.27 148.976L121.837 66.8462L143.757 59.9412C145.446 62.4728 148.05 64.2508 151.023 64.903C153.995 65.5552 157.105 65.0305 159.698 63.4381L165.428 59.9412L186.222 70.1143L183.253 157.595Z" fill="#005883"/>
<path d="M77.26 190.165L21.9919 258.795C20.4618 260.699 18.2605 261.945 15.8406 262.277C13.4206 262.609 10.9653 262.001 8.97958 260.579C6.9939 259.157 5.62735 257.028 5.16239 254.63C4.69744 252.232 5.1679 249.747 6.47858 247.685L53.6064 173.228C55.6731 169.963 58.9514 167.652 62.7213 166.805C66.4913 165.958 70.443 166.642 73.7079 168.709C76.9728 170.776 79.2826 174.054 80.1299 177.824C80.9772 181.594 80.2928 185.545 78.2261 188.81C77.9271 189.278 77.6045 189.73 77.26 190.165Z" fill="#333A3F"/>
<path d="M157.178 157.226L156.271 157.326C140.559 159.069 66.5993 166.233 66.5993 166.233C62.9403 166.665 59.5849 168.478 57.2192 171.302C54.8528 174.125 53.6554 177.747 53.8702 181.424C54.0857 185.102 55.6969 188.559 58.3765 191.087C61.0553 193.616 64.5987 195.025 68.2829 195.028H77.7786L132.708 194.869L157.347 194.799C160.336 194.799 185.684 193.185 183.253 157.614" fill="#333A3F"/>
<path d="M127.187 151.357C127.187 151.357 129.539 152.024 129.27 148.976L183.252 157.594L178.728 176.684L134.49 171.423L127.187 151.357Z" fill="#333A3F"/>
<path opacity="0.24" d="M146.167 157.594L69.2693 166.004C65.7747 166.31 62.3965 167.414 59.396 169.231C56.3954 171.048 53.8519 173.53 51.9622 176.485L33.42 205.589" stroke="black" stroke-width="1.4" stroke-miterlimit="10" stroke-linecap="round"/>
<path d="M12.5766 161.211C12.2957 161.211 12.0188 161.145 11.7686 161.017C11.5192 160.889 11.3029 160.704 11.1385 160.476C10.974 160.248 10.8663 159.985 10.823 159.708C10.7805 159.43 10.8041 159.146 10.893 158.88L14.2004 148.916L23.4168 142.36C23.6064 142.214 23.8228 142.108 24.0541 142.048C24.2846 141.987 24.5253 141.975 24.7621 142.009C24.9981 142.045 25.2247 142.127 25.4285 142.253C25.6322 142.378 25.8085 142.542 25.9469 142.737C26.0846 142.932 26.1822 143.153 26.2333 143.385C26.2844 143.619 26.2876 143.86 26.2427 144.095C26.1987 144.33 26.1066 144.553 25.9737 144.751C25.8407 144.949 25.6692 145.119 25.4694 145.249L17.1994 151.138L14.2602 160.015C14.1382 160.364 13.9109 160.667 13.6088 160.882C13.3074 161.096 12.9464 161.211 12.5766 161.211Z" fill="#FFC3AB"/>
<path d="M26.9949 157.594C26.6322 157.594 26.279 157.484 25.9816 157.277C25.6842 157.07 25.4576 156.776 25.3317 156.437C25.2059 156.097 25.187 155.728 25.2775 155.377C25.3679 155.027 25.5638 154.712 25.8384 154.476L31.1991 149.863C31.5563 149.561 32.0181 149.413 32.4846 149.451C32.9504 149.489 33.3823 149.708 33.6868 150.063C33.9912 150.417 34.1438 150.878 34.1108 151.344C34.0778 151.81 33.8622 152.245 33.5105 152.552L28.1506 157.166C27.8264 157.439 27.4181 157.59 26.9949 157.594Z" fill="#FFC3AB"/>
<path d="M16.8799 163.343H16.6014C16.1428 163.272 15.7305 163.023 15.4544 162.65C15.1783 162.276 15.061 161.81 15.1263 161.35L16.8603 150.301L24.8313 144.083C25.0123 143.925 25.2247 143.805 25.4536 143.731C25.6833 143.657 25.9257 143.631 26.1656 143.654C26.4056 143.677 26.6384 143.747 26.8493 143.863C27.0609 143.979 27.2466 144.137 27.3953 144.326C27.544 144.516 27.6517 144.735 27.7131 144.968C27.7745 145.2 27.7878 145.444 27.7517 145.682C27.7163 145.92 27.6321 146.149 27.5054 146.354C27.3779 146.558 27.2112 146.735 27.0129 146.873L20.1779 152.234L18.654 161.908C18.5761 162.319 18.355 162.689 18.0301 162.951C17.7052 163.214 17.2977 163.353 16.8799 163.343Z" fill="#FFC3AB"/>
<path d="M21.6821 161.739C21.2226 161.738 20.782 161.557 20.4516 161.239C20.1212 160.919 19.9269 160.485 19.9088 160.026L19.5799 150.919L25.9067 144.473C26.2403 144.159 26.6824 143.988 27.1395 143.992C27.5974 143.997 28.0356 144.179 28.3621 144.499C28.6886 144.82 28.879 145.254 28.8931 145.711C28.9073 146.168 28.7437 146.614 28.4376 146.954L23.187 152.314L23.4561 159.906C23.4718 160.375 23.3019 160.831 22.9825 161.174C22.6631 161.518 22.2209 161.721 21.7521 161.739H21.6821Z" fill="#FFC3AB"/>
<path d="M23.9055 142.221L36.5694 137.508C36.5694 137.508 39.8374 137.847 41.0426 140.159C42.2487 142.47 39.6384 144.891 39.6384 144.891L33.2116 152.802L30.0828 151.238L30.9703 150.361L26.0674 148.707L23.9055 142.221Z" fill="#FFC3AB"/>
<path d="M161.82 141.483C160.655 143.541 158.746 145.075 156.485 145.77C154.225 146.464 151.785 146.268 149.665 145.22C147.544 144.172 145.906 142.352 145.085 140.134C144.264 137.916 144.323 135.469 145.251 133.293C152.295 115.698 160.366 98.5403 167.3 80.9342C169.233 76.0125 172.282 71.7878 177.154 69.7651C183.601 67.0855 190.047 70.9609 191.85 77.4372C193.893 84.8104 191.004 91.9743 187.078 98.5505C182.315 106.521 177.453 114.372 172.81 122.463L161.82 141.483Z" fill="#005883"/>
<path d="M151.509 147.033L101.023 143.486C99.4661 143.386 98.0068 142.695 96.9439 141.552C95.8803 140.411 95.2949 138.906 95.306 137.346C95.3178 135.786 95.9259 134.289 97.0053 133.164C98.0855 132.038 99.5551 131.368 101.113 131.29L151.648 128.451C152.913 128.389 154.176 128.586 155.362 129.03C156.548 129.474 157.631 130.155 158.544 131.032C159.458 131.908 160.183 132.962 160.675 134.128C161.167 135.295 161.416 136.55 161.406 137.815C161.397 139.082 161.129 140.332 160.62 141.492C160.11 142.651 159.37 143.693 158.443 144.556C157.516 145.419 156.423 146.084 155.231 146.51C154.039 146.935 152.772 147.114 151.509 147.033Z" fill="#005883"/>
<path d="M65.4631 140.766C65.1153 140.769 64.7747 140.67 64.4828 140.48C64.1917 140.29 63.9628 140.018 63.8259 139.699C63.6882 139.379 63.6481 139.027 63.7111 138.685C63.774 138.343 63.936 138.027 64.1776 137.777L71.3116 130.205L79.7012 126.777C79.9183 126.675 80.1543 126.62 80.3935 126.613C80.6334 126.605 80.8726 126.646 81.0952 126.733C81.3187 126.82 81.5224 126.952 81.6932 127.121C81.8639 127.288 81.9992 127.49 82.0897 127.712C82.1809 127.933 82.2258 128.172 82.2226 128.411C82.2187 128.651 82.1668 128.888 82.0692 129.106C81.9717 129.326 81.8308 129.523 81.6546 129.685C81.4792 129.848 81.2722 129.974 81.0465 130.055L73.3641 133.204L66.7486 140.178C66.5865 140.36 66.389 140.506 66.1672 140.607C65.9461 140.708 65.7062 140.763 65.4631 140.766Z" fill="#FFC3AB"/>
<path d="M68.3436 141.514C68.0061 141.511 67.6757 141.414 67.3917 141.232C67.1069 141.05 66.8803 140.791 66.7379 140.485C66.5947 140.179 66.5413 139.839 66.5837 139.505C66.6262 139.17 66.7631 138.854 66.9779 138.594L72.4778 132.048L80.5984 128.969C81.035 128.805 81.5189 128.817 81.9468 129.002C82.374 129.189 82.7123 129.534 82.8901 129.965C83.0593 130.4 83.0498 130.885 82.8634 131.312C82.6761 131.74 82.3276 132.076 81.8933 132.248L74.6398 134.997L69.7385 140.836C69.5725 141.047 69.3601 141.218 69.1185 141.335C68.877 141.452 68.6119 141.514 68.3436 141.514Z" fill="#FFC3AB"/>
<path d="M71.2314 142.051C70.9128 142.051 70.6005 141.966 70.3267 141.804C70.0529 141.641 69.8271 141.409 69.6745 141.129C69.5219 140.85 69.4471 140.535 69.4574 140.217C69.4684 139.899 69.5652 139.59 69.7367 139.321L73.6624 133.204L82.6295 130.892C83.0858 130.774 83.5696 130.843 83.9748 131.082C84.3799 131.321 84.6742 131.711 84.7922 132.168C84.9094 132.623 84.8409 133.107 84.6018 133.512C84.3626 133.918 83.9724 134.212 83.5161 134.33L75.9242 136.322L72.7561 141.304C72.5838 141.545 72.3541 141.741 72.0882 141.87C71.8223 142.001 71.5272 142.063 71.2314 142.051Z" fill="#FFC3AB"/>
<path d="M75.417 142.728C75.0842 142.73 74.7577 142.637 74.476 142.461C74.1936 142.284 73.967 142.032 73.8223 141.732C73.6154 141.309 73.5839 140.821 73.735 140.375C73.886 139.929 74.2078 139.561 74.6294 139.351C74.9284 139.212 75.1274 139.112 86.5861 137.228C87.051 137.152 87.5277 137.263 87.9109 137.538C88.2932 137.813 88.5521 138.228 88.6284 138.693C88.7047 139.158 88.5938 139.635 88.3192 140.018C88.0446 140.401 87.6285 140.659 87.1635 140.736C83.178 141.384 76.752 142.459 75.9346 142.639C75.7686 142.698 75.5932 142.728 75.417 142.728Z" fill="#FFC3AB"/>
<path d="M80.5682 126.677L93.9991 132.576C93.9991 132.576 98.9806 133.074 99.4291 136.442C99.8775 139.809 100.335 141.114 95.3043 142.161C90.2724 143.207 84.095 140.328 84.095 140.328L83.3083 138.156L84.6033 137.338L81.7931 134.23L80.5682 126.677Z" fill="#FFC3AB"/>
<path d="M169.722 76.3616L147.214 129.148L127.536 129.816" stroke="#333A3F" stroke-width="1.4" stroke-miterlimit="10" stroke-linecap="round"/>
<path d="M186.52 100.194L162.249 141.483C161.15 143.426 159.523 145.018 157.557 146.075C155.592 147.134 153.367 147.614 151.139 147.462L128.951 145.469" stroke="#333A3F" stroke-width="1.4" stroke-miterlimit="10" stroke-linecap="round"/>
<path d="M72.4067 143.724H0.479891V95.7903H72.4067V143.724Z" fill="#333A3F"/>
<path d="M110.259 148.139H1.10838V143.087H110.259V148.139Z" fill="#333A3F"/>
<path d="M123.063 80.5862L125.075 101.26" stroke="#333A3F" stroke-width="1.4" stroke-miterlimit="10" stroke-linecap="round"/>
<path opacity="0.24" d="M50.2872 148.089L82.9983 148.836L128.303 152.105L129.697 149.055" stroke="black" stroke-width="1.4" stroke-miterlimit="10" stroke-linecap="round"/>
<path d="M40.6836 117.521H33.7086C33.3302 117.524 32.9675 117.676 32.7008 117.945C32.4341 118.214 32.2838 118.577 32.2838 118.956V125.632C32.2846 125.718 32.3082 125.803 32.3538 125.877C32.4003 125.951 32.4656 126.011 32.5434 126.05C32.6095 126.089 32.685 126.11 32.7621 126.109C32.8589 126.109 32.9533 126.078 33.0312 126.02L35.024 124.585H40.6632C41.0416 124.585 41.4035 124.435 41.671 124.168C41.9385 123.901 42.0879 123.538 42.0879 123.161V118.956C42.0879 118.58 41.9408 118.22 41.6789 117.952C41.4161 117.684 41.0589 117.529 40.6836 117.521Z" fill="white"/>
<path d="M165.387 59.9412C162.468 63.0983 158.415 64.9691 154.118 65.1422C150.711 65.272 144.215 64.2359 143.716 59.9412" stroke="#333A3F" stroke-width="1.4" stroke-miterlimit="10"/>
</g>
</svg>
